nColumns=19
nRows=113
DataType=double
version=3
OpenSimVersion=4.1
endheader
time	ground_force_1_vx	ground_force_1_vy	ground_force_1_vz	ground_force_1_px	ground_force_1_py	ground_force_1_pz	ground_force_1_mx	ground_force_1_my	ground_force_1_mz	ground_force_2_vx	ground_force_2_vy	ground_force_2_vz	ground_force_2_px	ground_force_2_py	ground_force_2_pz	ground_force_2_mx	ground_force_2_my	ground_force_2_mz
0.46	-5.0829	19.2216	-6.66026	1.08727	0	-0.259209	-0	1.7287	-0	0	0	0	0.000358872	0	4.66243e-05	0	0	0
0.47	-16.4964	77.8361	-14.5223	1.08893	0	-0.26531	-0	3.59512	-0	0	0	0	0.000358872	0	4.66243e-05	0	0	0
0.48	-35.6709	226.725	-24.114	1.08223	0	-0.27212	-0	4.77736	-0	0	0	0	0.000358872	0	4.66243e-05	0	0	0
0.49	-52.7238	479.994	-28.3964	1.06802	0	-0.278638	-0	4.71485	-0	0	0	0	0.000358872	0	4.66243e-05	0	0	0
0.5	-66.5641	771.335	-19.6232	1.05048	0	-0.283654	-0	3.25288	-0	0	0	0	0.000358872	0	4.66243e-05	0	0	0
0.51	-98.5653	997.37	-0.372051	1.03354	0	-0.286925	-0	0.831079	-0	0	0	0	0.000358872	0	4.66243e-05	0	0	0
0.52	-138.643	1133.18	16.0296	1.01624	0	-0.289465	0	-1.66696	0	0	0	0	0.000358872	0	4.66243e-05	0	0	0
0.53	-159.365	1236.84	21.1391	0.995465	0	-0.291274	0	-3.33814	0	0	0	0	0.000358872	0	4.66243e-05	0	0	0
0.54	-157.309	1346.06	18.4901	0.971593	0	-0.291425	0	-3.65966	0	0	0	0	0.000358872	0	4.66243e-05	0	0	0
0.55	-138.719	1446.25	13.3811	0.946666	0	-0.290758	0	-2.63459	0	0	0	0	0.000358872	0	4.66243e-05	0	0	0
0.56	-109.805	1514.18	7.57026	0.921668	0	-0.29034	0	-0.694943	0	0	0	0	0.000358872	0	4.66243e-05	0	0	0
0.57	-76.6905	1545.12	2.67285	0.897192	0	-0.289685	-0	1.51339	-0	0	0	0	0.000358872	0	4.66243e-05	0	0	0
0.58	-42.6643	1541.96	-0.655141	0.873245	0	-0.288478	-0	3.35863	-0	0	0	0	0.000358872	0	4.66243e-05	0	0	0
0.59	-7.87145	1505.91	-3.31316	0.849314	0	-0.287295	-0	4.39131	-0	0	0	0	0.000358872	0	4.66243e-05	0	0	0
0.6	28.7676	1440.76	-4.02302	0.825029	0	-0.286319	-0	4.42927	-0	0	0	0	0.000358872	0	4.66243e-05	0	0	0
0.61	67.3386	1351.56	-0.517447	0.799895	0	-0.285425	-0	3.5761	-0	0	0	0	0.000358872	0	4.66243e-05	0	0	0
0.62	105.532	1238.94	6.15321	0.773287	0	-0.28504	-0	2.17321	-0	0	0	0	0.000358872	0	4.66243e-05	0	0	0
0.63	138.239	1103.73	13.0953	0.745621	0	-0.28536	-0	0.678165	-0	0	0	0	0.000358872	0	4.66243e-05	0	0	0
0.64	159.714	950.805	18.534	0.718514	0	-0.285676	0	-0.492242	0	0	0	0	0.000358872	0	4.66243e-05	0	0	0
0.65	166.276	786.091	21.066	0.693541	0	-0.2855	0	-1.08891	0	0	0	0	0.000358872	0	4.66243e-05	0	0	0
0.66	157.956	616.603	19.9256	0.670553	0	-0.285148	0	-1.08563	0	0	0	0	0.000358872	0	4.66243e-05	0	0	0
0.67	137.355	454.586	16.588	0.649256	0	-0.28415	0	-0.648574	0	0	0	0	0.000358872	0	4.66243e-05	0	0	0
0.68	109.112	312.774	12.8498	0.63086	0	-0.2812	0	-0.037993	0	0	0	0	0.000358872	0	4.66243e-05	0	0	0
0.69	79.057	197.756	8.81479	0.61631	0	-0.276343	-0	0.503037	-0	0	0	0	0.000358872	0	4.66243e-05	0	0	0
0.7	51.1043	110.722	4.72946	0.60576	0	-0.269978	-0	0.822713	-0	0	0	0	0.000358872	0	4.66243e-05	0	0	0
0.71	27.2242	52.2209	1.90995	0.601455	0	-0.258251	-0	0.887825	-0	0	0	0	0.000358872	0	4.66243e-05	0	0	0
0.72	10.0366	20.0109	0.741346	0.603088	0	-0.231083	-0	0.771016	-0	0	0	0	0.000358872	0	4.66243e-05	0	0	0
0.73	0	0	0	0.000358872	0	4.66243e-05	0	0	0	0	0	0	0.000358872	0	4.66243e-05	0	0	0
0.74	0	0	0	0.000358872	0	4.66243e-05	0	0	0	0	0	0	0.000358872	0	4.66243e-05	0	0	0
0.75	0	0	0	0.000358872	0	4.66243e-05	0	0	0	0	0	0	0.000358872	0	4.66243e-05	0	0	0
0.76	0	0	0	0.000358872	0	4.66243e-05	0	0	0	0	0	0	0.000358872	0	4.66243e-05	0	0	0
0.77	0	0	0	0.000358872	0	4.66243e-05	0	0	0	0	0	0	0.000358872	0	4.66243e-05	0	0	0
0.78	0	0	0	0.000358872	0	4.66243e-05	0	0	0	0	0	0	0.000358872	0	4.66243e-05	0	0	0
0.79	0	0	0	0.000358872	0	4.66243e-05	0	0	0	0	0	0	0.000358872	0	4.66243e-05	0	0	0
0.8	0	0	0	0.000358872	0	4.66243e-05	0	0	0	0	0	0	0.000358872	0	4.66243e-05	0	0	0
0.81	0	0	0	0.000358872	0	4.66243e-05	0	0	0	-7.59535	20.0689	1.57717	1.12085	0	-0.356814	0	-0.279232	0
0.82	0	0	0	0.000358872	0	4.66243e-05	0	0	0	-28.103	78.3631	5.37292	1.11596	0	-0.359478	0	-0.824852	0
0.83	0	0	0	0.000358872	0	4.66243e-05	0	0	0	-64.4699	224.13	13.277	1.11439	0	-0.351086	0	-0.947456	0
0.84	0	0	0	0.000358872	0	4.66243e-05	0	0	0	-92.332	468.113	21.0906	1.10268	0	-0.341234	0	-0.299254	0
0.85	0	0	0	0.000358872	0	4.66243e-05	0	0	0	-96.0524	748.174	19.6232	1.08335	0	-0.334321	-0	1.18688	-0
0.86	0	0	0	0.000358872	0	4.66243e-05	0	0	0	-111.226	966.859	6.62542	1.06334	0	-0.331952	-0	3.12266	-0
0.87	0	0	0	0.000358872	0	4.66243e-05	0	0	0	-150.436	1098.79	-6.2472	1.04507	0	-0.331389	-0	4.77177	-0
0.88	0	0	0	0.000358872	0	4.66243e-05	0	0	0	-182.593	1202.4	-7.47294	1.02528	0	-0.330677	-0	5.43593	-0
0.89	0	0	0	0.000358872	0	4.66243e-05	0	0	0	-185.969	1317.02	1.51622	1.00112	0	-0.330689	-0	4.83858	-0
0.9	0	0	0	0.000358872	0	4.66243e-05	0	0	0	-166.964	1428.17	12.9477	0.974496	0	-0.331553	-0	3.23055	-0
0.91	0	0	0	0.000358872	0	4.66243e-05	0	0	0	-137.558	1512.12	22.007	0.947992	0	-0.33238	-0	1.20885	-0
0.92	0	0	0	0.000358872	0	4.66243e-05	0	0	0	-105.154	1560.13	27.1521	0.922747	0	-0.333066	0	-0.571849	0
0.93	0	0	0	0.000358872	0	4.66243e-05	0	0	0	-70.9802	1571.84	28.6822	0.898593	0	-0.333766	0	-1.62833	0
0.94	0	0	0	0.000358872	0	4.66243e-05	0	0	0	-34.7081	1550.26	27.9926	0.874742	0	-0.334352	0	-1.74805	0
0.95	0	0	0	0.000358872	0	4.66243e-05	0	0	0	4.08362	1498.93	25.4146	0.850595	0	-0.334702	0	-0.975338	0
0.96	0	0	0	0.000358872	0	4.66243e-05	0	0	0	44.9471	1420.71	19.7389	0.825908	0	-0.334782	-0	0.454899	-0
0.97	0	0	0	0.000358872	0	4.66243e-05	0	0	0	86.2462	1317.23	10.6921	0.800379	0	-0.334355	-0	2.19257	-0
0.98	0	0	0	0.000358872	0	4.66243e-05	0	0	0	123.196	1188.46	-0.0446337	0.774209	0	-0.333207	-0	3.85159	-0
0.99	0	0	0	0.000358872	0	4.66243e-05	0	0	0	150.931	1035.16	-10.3123	0.747662	0	-0.331766	-0	5.09292	-0
1	0	0	0	0.000358872	0	4.66243e-05	0	0	0	164.755	863.613	-18.0727	0.721094	0	-0.330578	-0	5.69501	-0
1.01	0	0	0	0.000358872	0	4.66243e-05	0	0	0	162.736	685.548	-21.7863	0.695708	0	-0.329373	-0	5.59173	-0
1.02	0	0	0	0.000358872	0	4.66243e-05	0	0	0	146.213	512.454	-21.8293	0.672971	0	-0.328059	-0	4.86545	-0
1.03	0	0	0	0.000358872	0	4.66243e-05	0	0	0	118.491	354.326	-19.7347	0.652732	0	-0.327559	-0	3.69788	-0
1.04	0	0	0	0.000358872	0	4.66243e-05	0	0	0	83.7192	222	-15.975	0.635386	0	-0.328473	-0	2.30739	-0
1.05	0	0	0	0.000358872	0	4.66243e-05	0	0	0	50.012	123.601	-10.5789	0.626543	0	-0.329167	-0	0.904846	-0
1.06	0	0	0	0.000358872	0	4.66243e-05	0	0	0	25.1324	59.1021	-4.9577	0.641514	0	-0.325467	0	-0.332181	0
1.07	0	0	0	0.000358872	0	4.66243e-05	0	0	0	10.4171	22.7496	-0.979865	0.695045	0	-0.313479	0	-1.28504	0
1.08	0	0	0	0.000358872	0	4.66243e-05	0	0	0	0	0	0	0.000358872	0	4.66243e-05	0	0	0
1.09	0	0	0	0.000358872	0	4.66243e-05	0	0	0	0	0	0	0.000358872	0	4.66243e-05	0	0	0
1.1	0	0	0	0.000358872	0	4.66243e-05	0	0	0	0	0	0	0.000358872	0	4.66243e-05	0	0	0
1.11	0	0	0	0.000358872	0	4.66243e-05	0	0	0	0	0	0	0.000358872	0	4.66243e-05	0	0	0
1.12	0	0	0	0.000358872	0	4.66243e-05	0	0	0	0	0	0	0.000358872	0	4.66243e-05	0	0	0
1.13	0	0	0	0.000358872	0	4.66243e-05	0	0	0	0	0	0	0.000358872	0	4.66243e-05	0	0	0
1.14	0	0	0	0.000358872	0	4.66243e-05	0	0	0	0	0	0	0.000358872	0	4.66243e-05	0	0	0
1.15	0	0	0	0.000358872	0	4.66243e-05	0	0	0	0	0	0	0.000358872	0	4.66243e-05	0	0	0
1.16	0	0	0	0.000358872	0	4.66243e-05	0	0	0	0	0	0	0.000358872	0	4.66243e-05	0	0	0
1.17	0	0	0	0.000358872	0	4.66243e-05	0	0	0	0	0	0	0.000358872	0	4.66243e-05	0	0	0
1.18	-11.9743	42.1529	-9.87769	1.0838	0	-0.254655	-0	3.02667	-0	0	0	0	0.000358872	0	4.66243e-05	0	0	0
1.19	-34.2523	147.942	-19.482	1.08005	0	-0.262249	-0	4.13925	-0	0	0	0	0.000358872	0	4.66243e-05	0	0	0
1.2	-65.0212	376.303	-27.5772	1.07204	0	-0.267353	-0	4.04429	-0	0	0	0	0.000358872	0	4.66243e-05	0	0	0
1.21	-87.4657	703.746	-25.3959	1.05859	0	-0.271814	-0	2.44374	-0	0	0	0	0.000358872	0	4.66243e-05	0	0	0
1.22	-108.213	1011.02	-9.78058	1.04252	0	-0.274994	0	-0.339745	0	0	0	0	0.000358872	0	4.66243e-05	0	0	0
1.23	-142.209	1207.71	8.75932	1.02601	0	-0.277208	0	-3.39256	0	0	0	0	0.000358872	0	4.66243e-05	0	0	0
1.24	-168.796	1324.73	16.4256	1.00759	0	-0.278816	0	-5.61198	0	0	0	0	0.000358872	0	4.66243e-05	0	0	0
1.25	-174.291	1423.01	11.2852	0.986202	0	-0.278839	0	-6.2269	0	0	0	0	0.000358872	0	4.66243e-05	0	0	0
1.26	-161.53	1511.58	-0.594908	0.962565	0	-0.277277	0	-5.1005	0	0	0	0	0.000358872	0	4.66243e-05	0	0	0
1.27	-133.475	1569.91	-14.5893	0.937295	0	-0.275783	0	-2.69934	0	0	0	0	0.000358872	0	4.66243e-05	0	0	0
1.28	-97.0985	1590.98	-26.579	0.911449	0	-0.274592	-0	0.165814	-0	0	0	0	0.000358872	0	4.66243e-05	0	0	0
1.29	-60.0973	1578.25	-33.7218	0.886663	0	-0.272795	-0	2.66753	-0	0	0	0	0.000358872	0	4.66243e-05	0	0	0
1.3	-23.594	1529.33	-37.5967	0.863052	0	-0.270837	-0	4.21654	-0	0	0	0	0.000358872	0	4.66243e-05	0	0	0
1.31	13.3658	1445.9	-38.8741	0.839599	0	-0.269471	-0	4.57404	-0	0	0	0	0.000358872	0	4.66243e-05	0	0	0
1.32	51.6304	1339.3	-34.5282	0.815784	0	-0.268401	-0	3.85162	-0	0	0	0	0.000358872	0	4.66243e-05	0	0	0
1.33	89.2204	1214.74	-24.717	0.791517	0	-0.267717	-0	2.43933	-0	0	0	0	0.000358872	0	4.66243e-05	0	0	0
1.34	122.222	1070.1	-13.9418	0.766108	0	-0.26806	-0	0.861178	-0	0	0	0	0.000358872	0	4.66243e-05	0	0	0
1.35	144.534	909.083	-4.84965	0.739749	0	-0.26895	0	-0.407336	0	0	0	0	0.000358872	0	4.66243e-05	0	0	0
1.36	150.785	739.989	2.01479	0.713605	0	-0.269351	0	-1.07727	0	0	0	0	0.000358872	0	4.66243e-05	0	0	0
1.37	142.187	569.378	5.39921	0.687611	0	-0.269647	0	-1.09555	0	0	0	0	0.000358872	0	4.66243e-05	0	0	0
1.38	121.314	408.067	5.58007	0.662473	0	-0.270368	0	-0.612563	0	0	0	0	0.000358872	0	4.66243e-05	0	0	0
1.39	91.8494	271.24	5.06965	0.643083	0	-0.269618	-0	0.111757	-0	0	0	0	0.000358872	0	4.66243e-05	0	0	0
1.4	61.162	165.698	4.58618	0.633585	0	-0.265605	-0	0.818938	-0	0	0	0	0.000358872	0	4.66243e-05	0	0	0
1.41	35.8234	88.8853	3.1004	0.630615	0	-0.260436	-0	1.32095	-0	0	0	0	0.000358872	0	4.66243e-05	0	0	0
1.42	17.8662	39.2262	1.39743	0.642072	0	-0.253216	-0	1.51683	-0	0	0	0	0.000358872	0	4.66243e-05	0	0	0
1.43	6.73703	14.4068	0.856553	0.739627	0	-0.211719	-0	1.39007	-0	0	0	0	0.000358872	0	4.66243e-05	0	0	0
1.44	0	0	0	0.000358872	0	4.66243e-05	0	0	0	0	0	0	0.000358872	0	4.66243e-05	0	0	0
1.45	0	0	0	0.000358872	0	4.66243e-05	0	0	0	0	0	0	0.000358872	0	4.66243e-05	0	0	0
1.46	0	0	0	0.000358872	0	4.66243e-05	0	0	0	0	0	0	0.000358872	0	4.66243e-05	0	0	0
1.47	0	0	0	0.000358872	0	4.66243e-05	0	0	0	0	0	0	0.000358872	0	4.66243e-05	0	0	0
1.48	0	0	0	0.000358872	0	4.66243e-05	0	0	0	0	0	0	0.000358872	0	4.66243e-05	0	0	0
1.49	0	0	0	0.000358872	0	4.66243e-05	0	0	0	0	0	0	0.000358872	0	4.66243e-05	0	0	0
1.5	0	0	0	0.000358872	0	4.66243e-05	0	0	0	0	0	0	0.000358872	0	4.66243e-05	0	0	0
1.51	0	0	0	0.000358872	0	4.66243e-05	0	0	0	0	0	0	0.000358872	0	4.66243e-05	0	0	0
1.52	0	0	0	0.000358872	0	4.66243e-05	0	0	0	-5.34154	16.6009	-0.0297045	1.11797	0	-0.379112	-0	1.36907	-0
1.53	0	0	0	0.000358872	0	4.66243e-05	0	0	0	-19.0777	67.3284	2.10045	1.10821	0	-0.379232	-0	1.61293	-0
1.54	0	0	0	0.000358872	0	4.66243e-05	0	0	0	-45.2636	197.893	8.80025	1.09313	0	-0.373324	-0	1.71102	-0
1.55	0	0	0	0.000358872	0	4.66243e-05	0	0	0	-66.1259	427.269	19.3177	1.07319	0	-0.365722	-0	1.89825	-0
1.56	0	0	0	0.000358872	0	4.66243e-05	0	0	0	-68.2594	709.632	27.1121	1.05008	0	-0.359693	-0	2.40596	-0
1.57	0	0	0	0.000358872	0	4.66243e-05	0	0	0	-83.1642	949.751	25.8735	1.0284	0	-0.356923	-0	3.24293	-0
1.58	0	0	0	0.000358872	0	4.66243e-05	0	0	0	-120.71	1102.53	19.2024	1.00962	0	-0.356225	-0	4.09838	-0
